inDegrees=yes
name=ik_S54_A10_T01
DataType=double
version=3
OpenSimVersion=4.3-2021-08-27-4bc7ad9
endheader
time	pelvis_tilt	pelvis_list	pelvis_rotation	pelvis_tx	pelvis_ty	pelvis_tz	hip_flexion_r	hip_adduction_r	hip_rotation_r	knee_angle_r	knee_angle_r_beta	ankle_angle_r	subtalar_angle_r	mtp_angle_r	hip_flexion_l	hip_adduction_l	hip_rotation_l	knee_angle_l	knee_angle_l_beta	ankle_angle_l	subtalar_angle_l	mtp_angle_l	lumbar_extension	lumbar_bending	lumbar_rotation	arm_flex_r	arm_add_r	arm_rot_r	elbow_flex_r	pro_sup_r	wrist_flex_r	wrist_dev_r	arm_flex_l	arm_add_l	arm_rot_l	elbow_flex_l	pro_sup_l	wrist_flex_l	wrist_dev_l
5.699999999999966	0.4381109765699828	-1.31959141562675	16.32365628116498	0	0.9399999999999999	0	38.69134721327452	-9.897947391230828	-9.665001785958728	45.64758910613649	0.7967007254995772	0	0	0	38.69134721327452	-9.897947391230828	-9.665001785958728	45.64758910613649	0.7967007254995772	0	0	0	-0.06973066181361964	-0.8433807496972854	2.43752452442268	15.46575144681976	8.182858194086359	13.35449803743677	8.024906652691726	86.21365790059237	0	0	15.73302094305608	-6.656101696178011	2.853196576134119	12.03348026263387	103.3399919353263	0	0
5.719999999999966	0.3682037958771437	-1.399130430309294	16.36475698737478	0	0.9399999999999999	0	38.69393926064249	-9.898090850589998	-9.665305274440454	45.65023107412276	0.7967468365396698	0	0	0	38.69393926064249	-9.898090850589998	-9.665305274440454	45.65023107412276	0.7967468365396698	0	0	0	-0.158427662319215	-0.9006960295394786	2.446319482881425	15.37569997187092	8.245238845320001	13.93213250122635	7.732715977914286	85.13271644868914	0	0	16.03524791310201	-6.269398095527533	2.870452654412924	11.35870701436583	105.3683824049554	0	0
5.739999999999966	0.2790144307846226	-1.484117184105565	16.3958549953334	0	0.9399999999999999	0	38.69737291067874	-9.898282146343957	-9.665709129852925	45.65370620996428	0.7968074891020583	0	0	0	38.69737291067874	-9.898282146343957	-9.665709129852925	45.65370620996428	0.7968074891020583	0	0	0	-0.269091955597808	-0.956626587248409	2.392274464217781	15.30989912016692	8.34766101145221	14.72246571038142	7.459855472343102	84.30137772117399	0	0	16.41582982386642	-5.915988149818868	3.018177012214251	10.42065013098703	106.7655960016004	0	0
5.759999999999965	0.2399993462147126	-1.512878037335813	16.31757385234896	0	0.9399999999999999	0	38.70006427430236	-9.89843309116751	-9.666027146264685	45.6564101493222	0.7968546817466282	0	0	0	38.70006427430236	-9.89843309116751	-9.666027146264685	45.6564101493222	0.7968546817466282	0	0	0	-0.3123556191402116	-0.9746941696941147	2.47567847246961	15.4427098219773	8.290423872652777	14.64261562092413	6.610434561080723	84.39415040884279	0	0	16.53918093847128	-5.552550254691466	3.621457848141599	9.721725489976084	107.0959325737694	0	0
5.779999999999965	0.1419166474740342	-1.582305555807699	16.26333824152315	0	0.9399999999999999	0	38.70259690874661	-9.898573695104442	-9.666324445560633	45.65897727277586	0.7968994865031997	0	0	0	38.70259690874661	-9.898573695104442	-9.666324445560633	45.65897727277586	0.7968994865031997	0	0	0	-0.4237410100094156	-1.015187865044882	2.564328005992981	15.48584358871187	8.314040597047143	15.35356602807913	6.136449094247794	83.54741324723641	0	0	16.72709340374094	-5.319136408052517	4.460534222839113	9.148686522220208	107.0197431937968	0	0
5.799999999999964	0.01152456955277109	-1.672742672994882	16.23763804973945	0	0.9399999999999999	0	38.70536555623647	-9.898727110491835	-9.666649098610586	45.66178626533643	0.7969485126720458	0	0	0	38.70536555623647	-9.898727110491835	-9.666649098610586	45.66178626533643	0.7969485126720458	0	0	0	-0.5715843758547458	-1.067394921571912	2.666998094294697	15.61189940207981	8.331329620431807	15.97475359079329	5.748754655650891	82.55315778522873	0	0	16.99400911998422	-5.126656378396455	5.409969588960335	9.252172140431158	106.2207952713439	0	0
5.819999999999964	-0.03528099355031068	-1.703839430248259	16.22742029518704	0	0.9399999999999999	0	38.70934729296628	-9.898948787251856	-9.667117609738714	45.66580162115187	0.7970185938516644	0	0	0	38.70934729296628	-9.898948787251856	-9.667117609738714	45.66580162115187	0.7970185938516644	0	0	0	-0.6237699563130535	-1.085324369755592	2.719518717077928	15.75675454059535	8.292633338991079	15.86343595643552	5.023397766296069	82.56063381384533	0	0	17.08669267842733	-5.129206710608379	5.436343938768537	8.620726337082784	106.8867987274534	0	0
5.839999999999963	-0.1556986825605884	-1.766636820307592	16.26911970727832	0	0.9399999999999999	0	38.71163512701105	-9.899074695916589	-9.667384778979192	45.66813319967073	0.7970592875735872	0	0	0	38.71163512701105	-9.899074695916589	-9.667384778979192	45.66813319967073	0.7970592875735872	0	0	0	-0.7566452628912831	-1.112430185988854	2.72637561101578	15.65090857412713	8.277338249827864	16.78641788347122	4.945610161288875	81.54816871457686	0	0	17.30115337489194	-4.935859353208856	6.379167338208812	8.748044362751207	106.010377738933	0	0
5.859999999999963	-0.2479233925859287	-1.824618236831635	16.11792881326593	0	0.9399999999999999	0	38.71540910610655	-9.89928518392442	-9.667829510321161	45.67192679844901	0.7971254983627678	0	0	0	38.71540910610655	-9.89928518392442	-9.667829510321161	45.67192679844901	0.7971254983627678	0	0	0	-0.854947147691961	-1.147040389275788	2.927882403444901	15.66116528222087	8.264259183731836	16.86465191664535	4.808688471898752	81.18000058100378	0	0	17.31828151441185	-4.583876026496235	8.096944395912708	8.191341695704406	104.2715202818403	0	0
5.879999999999963	-0.3239522765153595	-1.862319499749923	16.13864795806652	0	0.9399999999999999	0	38.71767885519112	-9.89941091850295	-9.668095858904151	45.67421980601172	0.7971655188945103	0	0	0	38.71767885519112	-9.89941091850295	-9.668095858904151	45.67421980601172	0.7971655188945103	0	0	0	-0.9377332055182888	-1.162899912666279	2.950682955894792	15.63886612997651	8.203245620235945	16.83768785208172	4.809560672131723	80.62811581448722	0	0	17.45673983951114	-4.546431728797715	8.140047473519225	7.902173885231377	103.9563503753243	0	0
5.899999999999962	-0.3850974500622045	-1.886559970579285	16.10131771463435	0	0.9399999999999999	0	38.71939916453758	-9.899506433647227	-9.668298046391138	45.67595359941498	0.7971957792979465	0	0	0	38.71939916453758	-9.899506433647227	-9.668298046391138	45.67595359941498	0.7971957792979465	0	0	0	-1.00063115440182	-1.171183907494141	3.030039368872588	15.59605611160529	8.124636192164575	16.69649066616793	4.953173915173283	80.34814931788716	0	0	17.5290254110027	-4.381554456916805	8.704680245275108	7.781632255356924	103.145783930793	0	0
